<mxfile host="drawio-plugin" modified="2024-10-04T05:19:17.968Z" agent="Mozilla/5.0 (X11; Linux x86_64) AppleWebKit/537.36 (KHTML, like Gecko) Chrome/122.0.0.0 Safari/537.36" etag="OdZ0ue_1tCQw3izCMbs4" version="22.1.22" type="embed" pages="4">
  <diagram id="5yMBDQsDHAnr4YDEo78-" name="System-Context">
    <mxGraphModel dx="735" dy="478" grid="1" gridSize="10" guides="1" tooltips="1" connect="1" arrows="1" fold="1" page="1" pageScale="1" pageWidth="827" pageHeight="1169" math="0" shadow="0">
      <root>
        <mxCell id="0" />
        <mxCell id="1" parent="0" />
        <mxCell id="9WWY2c2hEHjJWLopwV19-16" value="Create and update intake form&lt;br&gt;&amp;nbsp;using" style="edgeStyle=orthogonalEdgeStyle;rounded=0;orthogonalLoop=1;jettySize=auto;html=1;" parent="1" source="9WWY2c2hEHjJWLopwV19-12" target="9WWY2c2hEHjJWLopwV19-15" edge="1">
          <mxGeometry relative="1" as="geometry" />
        </mxCell>
        <object placeholders="1" c4Name="Patient" c4Type="Person" c4Description="A User to  create/update intake Form." label="&lt;font style=&quot;font-size: 16px&quot;&gt;&lt;b&gt;%c4Name%&lt;/b&gt;&lt;/font&gt;&lt;div&gt;[%c4Type%]&lt;/div&gt;&lt;br&gt;&lt;div&gt;&lt;font style=&quot;font-size: 11px&quot;&gt;&lt;font color=&quot;#cccccc&quot;&gt;%c4Description%&lt;/font&gt;&lt;/div&gt;" id="9WWY2c2hEHjJWLopwV19-12">
          <mxCell style="html=1;fontSize=11;dashed=0;whiteSpace=wrap;fillColor=#083F75;strokeColor=#06315C;fontColor=#ffffff;shape=mxgraph.c4.person2;align=center;metaEdit=1;points=[[0.5,0,0],[1,0.5,0],[1,0.75,0],[0.75,1,0],[0.5,1,0],[0.25,1,0],[0,0.75,0],[0,0.5,0]];resizable=0;" parent="1" vertex="1">
            <mxGeometry x="170" y="210" width="200" height="180" as="geometry" />
          </mxCell>
        </object>
        <mxCell id="9WWY2c2hEHjJWLopwV19-17" value="Update and review the &lt;br&gt;intake forms using" style="edgeStyle=orthogonalEdgeStyle;rounded=0;orthogonalLoop=1;jettySize=auto;html=1;entryX=0;entryY=0.25;entryDx=0;entryDy=0;entryPerimeter=0;" parent="1" source="9WWY2c2hEHjJWLopwV19-13" target="9WWY2c2hEHjJWLopwV19-15" edge="1">
          <mxGeometry relative="1" as="geometry" />
        </mxCell>
        <object placeholders="1" c4Name="Care Team" c4Type="Person" c4Description="A User with Nurse role to  review the patient forms." label="&lt;font style=&quot;font-size: 16px&quot;&gt;&lt;b&gt;%c4Name%&lt;/b&gt;&lt;/font&gt;&lt;div&gt;[%c4Type%]&lt;/div&gt;&lt;br&gt;&lt;div&gt;&lt;font style=&quot;font-size: 11px&quot;&gt;&lt;font color=&quot;#cccccc&quot;&gt;%c4Description%&lt;/font&gt;&lt;/div&gt;" id="9WWY2c2hEHjJWLopwV19-13">
          <mxCell style="html=1;fontSize=11;dashed=0;whiteSpace=wrap;fillColor=#083F75;strokeColor=#06315C;fontColor=#ffffff;shape=mxgraph.c4.person2;align=center;metaEdit=1;points=[[0.5,0,0],[1,0.5,0],[1,0.75,0],[0.75,1,0],[0.5,1,0],[0.25,1,0],[0,0.75,0],[0,0.5,0]];resizable=0;" parent="1" vertex="1">
            <mxGeometry x="170" y="500" width="200" height="180" as="geometry" />
          </mxCell>
        </object>
        <mxCell id="9WWY2c2hEHjJWLopwV19-18" value="Update and review the&lt;br&gt;intake forms using" style="edgeStyle=orthogonalEdgeStyle;rounded=0;orthogonalLoop=1;jettySize=auto;html=1;" parent="1" source="9WWY2c2hEHjJWLopwV19-14" target="9WWY2c2hEHjJWLopwV19-15" edge="1">
          <mxGeometry relative="1" as="geometry" />
        </mxCell>
        <object placeholders="1" c4Name="Provider" c4Type="Person" c4Description="A User with Provider role to  review the patient and careteam forms." label="&lt;font style=&quot;font-size: 16px&quot;&gt;&lt;b&gt;%c4Name%&lt;/b&gt;&lt;/font&gt;&lt;div&gt;[%c4Type%]&lt;/div&gt;&lt;br&gt;&lt;div&gt;&lt;font style=&quot;font-size: 11px&quot;&gt;&lt;font color=&quot;#cccccc&quot;&gt;%c4Description%&lt;/font&gt;&lt;/div&gt;" id="9WWY2c2hEHjJWLopwV19-14">
          <mxCell style="html=1;fontSize=11;dashed=0;whiteSpace=wrap;fillColor=#083F75;strokeColor=#06315C;fontColor=#ffffff;shape=mxgraph.c4.person2;align=center;metaEdit=1;points=[[0.5,0,0],[1,0.5,0],[1,0.75,0],[0.75,1,0],[0.5,1,0],[0.25,1,0],[0,0.75,0],[0,0.5,0]];resizable=0;" parent="1" vertex="1">
            <mxGeometry x="160" y="730" width="200" height="180" as="geometry" />
          </mxCell>
        </object>
        <object placeholders="1" c4Name="Dynamo Health Showcase&#xa;" c4Type="Software System" c4Description="Create, update and review the intake forms&#xa;&#xa;Create and updates the business process models" label="&lt;font style=&quot;font-size: 16px&quot;&gt;&lt;b&gt;%c4Name%&lt;/b&gt;&lt;/font&gt;&lt;div&gt;[%c4Type%]&lt;/div&gt;&lt;br&gt;&lt;div&gt;&lt;font style=&quot;font-size: 11px&quot;&gt;&lt;font color=&quot;#cccccc&quot;&gt;%c4Description%&lt;/font&gt;&lt;/div&gt;" id="9WWY2c2hEHjJWLopwV19-15">
          <mxCell style="rounded=1;whiteSpace=wrap;html=1;labelBackgroundColor=none;fillColor=#1061B0;fontColor=#ffffff;align=center;arcSize=10;strokeColor=#0D5091;metaEdit=1;resizable=0;points=[[0.25,0,0],[0.5,0,0],[0.75,0,0],[1,0.25,0],[1,0.5,0],[1,0.75,0],[0.75,1,0],[0.5,1,0],[0.25,1,0],[0,0.75,0],[0,0.5,0],[0,0.25,0]];" parent="1" vertex="1">
            <mxGeometry x="540" y="560" width="240" height="120" as="geometry" />
          </mxCell>
        </object>
      </root>
    </mxGraphModel>
  </diagram>
  <diagram id="BJXCwD0RGr2HQybVFO3M" name="Container-diagram">
    <mxGraphModel dx="735" dy="478" grid="1" gridSize="10" guides="1" tooltips="1" connect="1" arrows="1" fold="1" page="1" pageScale="1" pageWidth="827" pageHeight="1169" math="0" shadow="0">
      <root>
        <mxCell id="0" />
        <mxCell id="1" parent="0" />
        <mxCell id="v_4WP_bn-rdc5L7ecMkm-6" style="edgeStyle=orthogonalEdgeStyle;rounded=0;orthogonalLoop=1;jettySize=auto;html=1;" parent="1" source="DDAc-m-tBWBgUUZh3KrV-1" target="v_4WP_bn-rdc5L7ecMkm-2" edge="1">
          <mxGeometry relative="1" as="geometry">
            <Array as="points">
              <mxPoint x="180" y="390" />
              <mxPoint x="180" y="390" />
            </Array>
          </mxGeometry>
        </mxCell>
        <mxCell id="v_4WP_bn-rdc5L7ecMkm-12" value="Visits Patient&lt;br style=&quot;border-color: var(--border-color);&quot;&gt;application using [HTTPS]" style="edgeLabel;html=1;align=center;verticalAlign=middle;resizable=0;points=[];" parent="v_4WP_bn-rdc5L7ecMkm-6" vertex="1" connectable="0">
          <mxGeometry x="-0.2133" y="5" relative="1" as="geometry">
            <mxPoint as="offset" />
          </mxGeometry>
        </mxCell>
        <object placeholders="1" c4Name="Patient" c4Type="Person" c4Description="A User to  create/update intake Form." label="&lt;font style=&quot;font-size: 16px&quot;&gt;&lt;b&gt;%c4Name%&lt;/b&gt;&lt;/font&gt;&lt;div&gt;[%c4Type%]&lt;/div&gt;&lt;br&gt;&lt;div&gt;&lt;font style=&quot;font-size: 11px&quot;&gt;&lt;font color=&quot;#cccccc&quot;&gt;%c4Description%&lt;/font&gt;&lt;/div&gt;" id="DDAc-m-tBWBgUUZh3KrV-1">
          <mxCell style="html=1;fontSize=11;dashed=0;whiteSpace=wrap;fillColor=#083F75;strokeColor=#06315C;fontColor=#ffffff;shape=mxgraph.c4.person2;align=center;metaEdit=1;points=[[0.5,0,0],[1,0.5,0],[1,0.75,0],[0.75,1,0],[0.5,1,0],[0.25,1,0],[0,0.75,0],[0,0.5,0]];resizable=0;" parent="1" vertex="1">
            <mxGeometry x="80" y="80" width="200" height="180" as="geometry" />
          </mxCell>
        </object>
        <mxCell id="v_4WP_bn-rdc5L7ecMkm-7" value="&lt;span style=&quot;color: rgb(0, 0, 0); font-family: Helvetica; font-size: 11px; font-style: normal; font-variant-ligatures: normal; font-variant-caps: normal; font-weight: 400; letter-spacing: normal; orphans: 2; text-align: center; text-indent: 0px; text-transform: none; widows: 2; word-spacing: 0px; -webkit-text-stroke-width: 0px; background-color: rgb(255, 255, 255); text-decoration-thickness: initial; text-decoration-style: initial; text-decoration-color: initial; float: none; display: inline !important;&quot;&gt;Visits care team&lt;/span&gt;&lt;br style=&quot;color: rgb(0, 0, 0); font-family: Helvetica; font-size: 11px; font-style: normal; font-variant-ligatures: normal; font-variant-caps: normal; font-weight: 400; letter-spacing: normal; orphans: 2; text-align: center; text-indent: 0px; text-transform: none; widows: 2; word-spacing: 0px; -webkit-text-stroke-width: 0px; text-decoration-thickness: initial; text-decoration-style: initial; text-decoration-color: initial; border-color: var(--border-color);&quot;&gt;&lt;span style=&quot;color: rgb(0, 0, 0); font-family: Helvetica; font-size: 11px; font-style: normal; font-variant-ligatures: normal; font-variant-caps: normal; font-weight: 400; letter-spacing: normal; orphans: 2; text-align: center; text-indent: 0px; text-transform: none; widows: 2; word-spacing: 0px; -webkit-text-stroke-width: 0px; background-color: rgb(255, 255, 255); text-decoration-thickness: initial; text-decoration-style: initial; text-decoration-color: initial; float: none; display: inline !important;&quot;&gt;application using [HTTPS]&lt;/span&gt;" style="edgeStyle=orthogonalEdgeStyle;rounded=0;orthogonalLoop=1;jettySize=auto;html=1;" parent="1" source="DDAc-m-tBWBgUUZh3KrV-2" target="v_4WP_bn-rdc5L7ecMkm-4" edge="1">
          <mxGeometry relative="1" as="geometry" />
        </mxCell>
        <object placeholders="1" c4Name="Care Team" c4Type="Person" c4Description="A User with Nurse role to  review the patient forms." label="&lt;font style=&quot;font-size: 16px&quot;&gt;&lt;b&gt;%c4Name%&lt;/b&gt;&lt;/font&gt;&lt;div&gt;[%c4Type%]&lt;/div&gt;&lt;br&gt;&lt;div&gt;&lt;font style=&quot;font-size: 11px&quot;&gt;&lt;font color=&quot;#cccccc&quot;&gt;%c4Description%&lt;/font&gt;&lt;/div&gt;" id="DDAc-m-tBWBgUUZh3KrV-2">
          <mxCell style="html=1;fontSize=11;dashed=0;whiteSpace=wrap;fillColor=#083F75;strokeColor=#06315C;fontColor=#ffffff;shape=mxgraph.c4.person2;align=center;metaEdit=1;points=[[0.5,0,0],[1,0.5,0],[1,0.75,0],[0.75,1,0],[0.5,1,0],[0.25,1,0],[0,0.75,0],[0,0.5,0]];resizable=0;" parent="1" vertex="1">
            <mxGeometry x="420" y="80" width="200" height="180" as="geometry" />
          </mxCell>
        </object>
        <mxCell id="v_4WP_bn-rdc5L7ecMkm-8" style="edgeStyle=orthogonalEdgeStyle;rounded=0;orthogonalLoop=1;jettySize=auto;html=1;" parent="1" source="DDAc-m-tBWBgUUZh3KrV-3" target="v_4WP_bn-rdc5L7ecMkm-5" edge="1">
          <mxGeometry relative="1" as="geometry">
            <Array as="points">
              <mxPoint x="840" y="380" />
              <mxPoint x="840" y="380" />
            </Array>
          </mxGeometry>
        </mxCell>
        <mxCell id="v_4WP_bn-rdc5L7ecMkm-13" value="Visits Provider&lt;br style=&quot;border-color: var(--border-color);&quot;&gt;application using [HTTPS]" style="edgeLabel;html=1;align=center;verticalAlign=middle;resizable=0;points=[];" parent="v_4WP_bn-rdc5L7ecMkm-8" vertex="1" connectable="0">
          <mxGeometry x="-0.3467" y="1" relative="1" as="geometry">
            <mxPoint as="offset" />
          </mxGeometry>
        </mxCell>
        <object placeholders="1" c4Name="Provider" c4Type="Person" c4Description="A User with Provider role to  review the patient and careteam forms." label="&lt;font style=&quot;font-size: 16px&quot;&gt;&lt;b&gt;%c4Name%&lt;/b&gt;&lt;/font&gt;&lt;div&gt;[%c4Type%]&lt;/div&gt;&lt;br&gt;&lt;div&gt;&lt;font style=&quot;font-size: 11px&quot;&gt;&lt;font color=&quot;#cccccc&quot;&gt;%c4Description%&lt;/font&gt;&lt;/div&gt;" id="DDAc-m-tBWBgUUZh3KrV-3">
          <mxCell style="html=1;fontSize=11;dashed=0;whiteSpace=wrap;fillColor=#083F75;strokeColor=#06315C;fontColor=#ffffff;shape=mxgraph.c4.person2;align=center;metaEdit=1;points=[[0.5,0,0],[1,0.5,0],[1,0.75,0],[0.75,1,0],[0.5,1,0],[0.25,1,0],[0,0.75,0],[0,0.5,0]];resizable=0;" parent="1" vertex="1">
            <mxGeometry x="740" y="80" width="200" height="180" as="geometry" />
          </mxCell>
        </object>
        <object placeholders="1" c4Name="Dynamo Health Showcase&#xa;" c4Type="SystemScopeBoundary" c4Application="Software System" label="&lt;font style=&quot;font-size: 16px&quot;&gt;&lt;b&gt;&lt;div style=&quot;text-align: left&quot;&gt;%c4Name%&lt;/div&gt;&lt;/b&gt;&lt;/font&gt;&lt;div style=&quot;text-align: left&quot;&gt;[%c4Application%]&lt;/div&gt;" id="DDAc-m-tBWBgUUZh3KrV-4">
          <mxCell style="rounded=1;fontSize=11;whiteSpace=wrap;html=1;dashed=1;arcSize=20;fillColor=none;strokeColor=#666666;fontColor=#333333;labelBackgroundColor=none;align=left;verticalAlign=bottom;labelBorderColor=none;spacingTop=0;spacing=10;dashPattern=8 4;metaEdit=1;rotatable=0;perimeter=rectanglePerimeter;noLabel=0;labelPadding=0;allowArrows=0;connectable=0;expand=0;recursiveResize=0;editable=1;pointerEvents=0;absoluteArcSize=1;points=[[0.25,0,0],[0.5,0,0],[0.75,0,0],[1,0.25,0],[1,0.5,0],[1,0.75,0],[0.75,1,0],[0.5,1,0],[0.25,1,0],[0,0.75,0],[0,0.5,0],[0,0.25,0]];" parent="1" vertex="1">
            <mxGeometry x="30" y="390" width="1000" height="600" as="geometry" />
          </mxCell>
        </object>
        <mxCell id="v_4WP_bn-rdc5L7ecMkm-9" style="edgeStyle=orthogonalEdgeStyle;rounded=0;orthogonalLoop=1;jettySize=auto;html=1;" parent="1" source="v_4WP_bn-rdc5L7ecMkm-2" target="v_4WP_bn-rdc5L7ecMkm-3" edge="1">
          <mxGeometry relative="1" as="geometry">
            <Array as="points">
              <mxPoint x="190" y="600" />
              <mxPoint x="520" y="600" />
            </Array>
          </mxGeometry>
        </mxCell>
        <object placeholders="1" c4Name="Patient Web App&#xa;" c4Type="Container" c4Technology="Javascript + React" c4Description="Provides patient Intake form functionalities" label="&lt;font style=&quot;font-size: 16px&quot;&gt;&lt;b&gt;%c4Name%&lt;/b&gt;&lt;/font&gt;&lt;div&gt;[%c4Type%: %c4Technology%]&lt;/div&gt;&lt;br&gt;&lt;div&gt;&lt;font style=&quot;font-size: 11px&quot;&gt;&lt;font color=&quot;#E6E6E6&quot;&gt;%c4Description%&lt;/font&gt;&lt;/div&gt;" id="v_4WP_bn-rdc5L7ecMkm-2">
          <mxCell style="rounded=1;whiteSpace=wrap;html=1;fontSize=11;labelBackgroundColor=none;fillColor=#23A2D9;fontColor=#ffffff;align=center;arcSize=10;strokeColor=#0E7DAD;metaEdit=1;resizable=0;points=[[0.25,0,0],[0.5,0,0],[0.75,0,0],[1,0.25,0],[1,0.5,0],[1,0.75,0],[0.75,1,0],[0.5,1,0],[0.25,1,0],[0,0.75,0],[0,0.5,0],[0,0.25,0]];" parent="1" vertex="1">
            <mxGeometry x="70" y="410" width="240" height="120" as="geometry" />
          </mxCell>
        </object>
        <mxCell id="u7-aQXUpxAKxses-OD4m-2" style="edgeStyle=orthogonalEdgeStyle;rounded=0;orthogonalLoop=1;jettySize=auto;html=1;" parent="1" source="v_4WP_bn-rdc5L7ecMkm-3" target="u7-aQXUpxAKxses-OD4m-1" edge="1">
          <mxGeometry relative="1" as="geometry" />
        </mxCell>
        <object placeholders="1" c4Name="RESTFul API Application" c4Type="Container" c4Technology="e.g. SpringBoot,camunda7 webapp,etc" c4Description="Provides patient Intake and patient&#xa; management functionalities&#xa;" label="&lt;font style=&quot;font-size: 16px&quot;&gt;&lt;b&gt;%c4Name%&lt;/b&gt;&lt;/font&gt;&lt;div&gt;[%c4Type%: %c4Technology%]&lt;/div&gt;&lt;br&gt;&lt;div&gt;&lt;font style=&quot;font-size: 11px&quot;&gt;&lt;font color=&quot;#E6E6E6&quot;&gt;%c4Description%&lt;/font&gt;&lt;/div&gt;" id="v_4WP_bn-rdc5L7ecMkm-3">
          <mxCell style="rounded=1;whiteSpace=wrap;html=1;fontSize=11;labelBackgroundColor=none;align=center;arcSize=10;metaEdit=1;resizable=0;points=[[0.25,0,0],[0.5,0,0],[0.75,0,0],[1,0.25,0],[1,0.5,0],[1,0.75,0],[0.75,1,0],[0.5,1,0],[0.25,1,0],[0,0.75,0],[0,0.5,0],[0,0.25,0]];fillColor=#9AC7BF;strokeColor=#000000;" parent="1" vertex="1">
            <mxGeometry x="400" y="680" width="240" height="120" as="geometry" />
          </mxCell>
        </object>
        <mxCell id="v_4WP_bn-rdc5L7ecMkm-10" style="edgeStyle=orthogonalEdgeStyle;rounded=0;orthogonalLoop=1;jettySize=auto;html=1;" parent="1" source="v_4WP_bn-rdc5L7ecMkm-4" target="v_4WP_bn-rdc5L7ecMkm-3" edge="1">
          <mxGeometry relative="1" as="geometry" />
        </mxCell>
        <object placeholders="1" c4Name="Care Team Web App" c4Type="Container" c4Technology="JavaScript + React" c4Description="Provides patients Intake form details and reviews functionalities" label="&lt;font style=&quot;font-size: 16px&quot;&gt;&lt;b&gt;%c4Name%&lt;/b&gt;&lt;/font&gt;&lt;div&gt;[%c4Type%: %c4Technology%]&lt;/div&gt;&lt;br&gt;&lt;div&gt;&lt;font style=&quot;font-size: 11px&quot;&gt;&lt;font color=&quot;#E6E6E6&quot;&gt;%c4Description%&lt;/font&gt;&lt;/div&gt;" id="v_4WP_bn-rdc5L7ecMkm-4">
          <mxCell style="rounded=1;whiteSpace=wrap;html=1;fontSize=11;labelBackgroundColor=none;fillColor=#23A2D9;fontColor=#ffffff;align=center;arcSize=10;strokeColor=#0E7DAD;metaEdit=1;resizable=0;points=[[0.25,0,0],[0.5,0,0],[0.75,0,0],[1,0.25,0],[1,0.5,0],[1,0.75,0],[0.75,1,0],[0.5,1,0],[0.25,1,0],[0,0.75,0],[0,0.5,0],[0,0.25,0]];" parent="1" vertex="1">
            <mxGeometry x="400" y="410" width="240" height="120" as="geometry" />
          </mxCell>
        </object>
        <mxCell id="v_4WP_bn-rdc5L7ecMkm-11" style="edgeStyle=orthogonalEdgeStyle;rounded=0;orthogonalLoop=1;jettySize=auto;html=1;entryX=0.5;entryY=0;entryDx=0;entryDy=0;entryPerimeter=0;" parent="1" source="v_4WP_bn-rdc5L7ecMkm-5" target="v_4WP_bn-rdc5L7ecMkm-3" edge="1">
          <mxGeometry relative="1" as="geometry">
            <Array as="points">
              <mxPoint x="860" y="600" />
              <mxPoint x="520" y="600" />
            </Array>
          </mxGeometry>
        </mxCell>
        <object placeholders="1" c4Name="Provider Web App" c4Type="Container" c4Technology="JavaScript + React" c4Description="Provides patients Intake form details and reviews functionalities for provider&#xa;" label="&lt;font style=&quot;font-size: 16px&quot;&gt;&lt;b&gt;%c4Name%&lt;/b&gt;&lt;/font&gt;&lt;div&gt;[%c4Type%: %c4Technology%]&lt;/div&gt;&lt;br&gt;&lt;div&gt;&lt;font style=&quot;font-size: 11px&quot;&gt;&lt;font color=&quot;#E6E6E6&quot;&gt;%c4Description%&lt;/font&gt;&lt;/div&gt;" id="v_4WP_bn-rdc5L7ecMkm-5">
          <mxCell style="rounded=1;whiteSpace=wrap;html=1;fontSize=11;labelBackgroundColor=none;fillColor=#23A2D9;fontColor=#ffffff;align=center;arcSize=10;strokeColor=#0E7DAD;metaEdit=1;resizable=0;points=[[0.25,0,0],[0.5,0,0],[0.75,0,0],[1,0.25,0],[1,0.5,0],[1,0.75,0],[0.75,1,0],[0.5,1,0],[0.25,1,0],[0,0.75,0],[0,0.5,0],[0,0.25,0]];" parent="1" vertex="1">
            <mxGeometry x="740" y="410" width="240" height="120" as="geometry" />
          </mxCell>
        </object>
        <object placeholders="1" c4Type="Database" c4Container="Container" c4Technology="SQL + Postgresql" c4Description="Stores all information in schema and tables" label="&lt;font style=&quot;font-size: 16px&quot;&gt;&lt;b&gt;%c4Type%&lt;/b&gt;&lt;/font&gt;&lt;div&gt;[%c4Container%:&amp;nbsp;%c4Technology%]&lt;/div&gt;&lt;br&gt;&lt;div&gt;&lt;font style=&quot;font-size: 11px&quot;&gt;&lt;font color=&quot;#E6E6E6&quot;&gt;%c4Description%&lt;/font&gt;&lt;/div&gt;" id="u7-aQXUpxAKxses-OD4m-1">
          <mxCell style="shape=cylinder3;size=15;whiteSpace=wrap;html=1;boundedLbl=1;rounded=0;labelBackgroundColor=none;fillColor=#23A2D9;fontSize=12;fontColor=#ffffff;align=center;strokeColor=#0E7DAD;metaEdit=1;points=[[0.5,0,0],[1,0.25,0],[1,0.5,0],[1,0.75,0],[0.5,1,0],[0,0.75,0],[0,0.5,0],[0,0.25,0]];resizable=0;" parent="1" vertex="1">
            <mxGeometry x="660" y="850" width="240" height="120" as="geometry" />
          </mxCell>
        </object>
      </root>
    </mxGraphModel>
  </diagram>
  <diagram id="g78hZLugFcVti0XRszJQ" name="class-diagram">
    <mxGraphModel dx="735" dy="478" grid="1" gridSize="10" guides="1" tooltips="1" connect="1" arrows="1" fold="1" page="1" pageScale="1" pageWidth="827" pageHeight="1169" math="0" shadow="0">
      <root>
        <mxCell id="0" />
        <mxCell id="1" parent="0" />
        <mxCell id="XpWDE-z4rotpAud8vWpD-4" value="Intake_form" style="swimlane;fontStyle=0;childLayout=stackLayout;horizontal=1;startSize=26;fillColor=#dae8fc;horizontalStack=0;resizeParent=1;resizeParentMax=0;resizeLast=0;collapsible=1;marginBottom=0;strokeColor=#6c8ebf;" parent="1" vertex="1">
          <mxGeometry x="220" y="160" width="140" height="208" as="geometry" />
        </mxCell>
        <mxCell id="XpWDE-z4rotpAud8vWpD-6" value="id" style="text;strokeColor=none;fillColor=none;align=left;verticalAlign=top;spacingLeft=4;spacingRight=4;overflow=hidden;rotatable=0;points=[[0,0.5],[1,0.5]];portConstraint=eastwest;" parent="XpWDE-z4rotpAud8vWpD-4" vertex="1">
          <mxGeometry y="26" width="140" height="26" as="geometry" />
        </mxCell>
        <mxCell id="XpWDE-z4rotpAud8vWpD-22" value="patient_firstname" style="text;strokeColor=none;fillColor=none;align=left;verticalAlign=top;spacingLeft=4;spacingRight=4;overflow=hidden;rotatable=0;points=[[0,0.5],[1,0.5]];portConstraint=eastwest;" parent="XpWDE-z4rotpAud8vWpD-4" vertex="1">
          <mxGeometry y="52" width="140" height="26" as="geometry" />
        </mxCell>
        <mxCell id="e3hZSBTx62Yl9psJ_fln-1" value="patient_lastname" style="text;strokeColor=none;fillColor=none;align=left;verticalAlign=top;spacingLeft=4;spacingRight=4;overflow=hidden;rotatable=0;points=[[0,0.5],[1,0.5]];portConstraint=eastwest;" parent="XpWDE-z4rotpAud8vWpD-4" vertex="1">
          <mxGeometry y="78" width="140" height="26" as="geometry" />
        </mxCell>
        <mxCell id="XpWDE-z4rotpAud8vWpD-15" value="process_instance_key" style="text;strokeColor=none;fillColor=none;align=left;verticalAlign=top;spacingLeft=4;spacingRight=4;overflow=hidden;rotatable=0;points=[[0,0.5],[1,0.5]];portConstraint=eastwest;" parent="XpWDE-z4rotpAud8vWpD-4" vertex="1">
          <mxGeometry y="104" width="140" height="26" as="geometry" />
        </mxCell>
        <mxCell id="XpWDE-z4rotpAud8vWpD-9" value="status" style="text;strokeColor=none;fillColor=none;align=left;verticalAlign=top;spacingLeft=4;spacingRight=4;overflow=hidden;rotatable=0;points=[[0,0.5],[1,0.5]];portConstraint=eastwest;" parent="XpWDE-z4rotpAud8vWpD-4" vertex="1">
          <mxGeometry y="130" width="140" height="26" as="geometry" />
        </mxCell>
        <mxCell id="XpWDE-z4rotpAud8vWpD-10" value="created_on" style="text;strokeColor=none;fillColor=none;align=left;verticalAlign=top;spacingLeft=4;spacingRight=4;overflow=hidden;rotatable=0;points=[[0,0.5],[1,0.5]];portConstraint=eastwest;" parent="XpWDE-z4rotpAud8vWpD-4" vertex="1">
          <mxGeometry y="156" width="140" height="26" as="geometry" />
        </mxCell>
        <mxCell id="XpWDE-z4rotpAud8vWpD-12" value="modified_on" style="text;strokeColor=none;fillColor=none;align=left;verticalAlign=top;spacingLeft=4;spacingRight=4;overflow=hidden;rotatable=0;points=[[0,0.5],[1,0.5]];portConstraint=eastwest;" parent="XpWDE-z4rotpAud8vWpD-4" vertex="1">
          <mxGeometry y="182" width="140" height="26" as="geometry" />
        </mxCell>
      </root>
    </mxGraphModel>
  </diagram>
  <diagram id="TWlcnoih6veONWlyy_2L" name="Sequence diagram">
    <mxGraphModel dx="735" dy="478" grid="1" gridSize="10" guides="1" tooltips="1" connect="1" arrows="1" fold="1" page="1" pageScale="1" pageWidth="827" pageHeight="1169" math="0" shadow="0">
      <root>
        <mxCell id="0" />
        <mxCell id="1" parent="0" />
        <mxCell id="OKBlbXvvnZSu9rRJi_Yc-3" value=":Client" style="shape=umlLifeline;perimeter=lifelinePerimeter;whiteSpace=wrap;html=1;container=1;collapsible=0;recursiveResize=0;outlineConnect=0;" parent="1" vertex="1">
          <mxGeometry x="260" y="120" width="100" height="1440" as="geometry" />
        </mxCell>
        <mxCell id="OKBlbXvvnZSu9rRJi_Yc-27" value="Request to save submission data&amp;nbsp;" style="edgeStyle=elbowEdgeStyle;fontSize=12;html=1;endArrow=blockThin;endFill=1;rounded=0;" parent="OKBlbXvvnZSu9rRJi_Yc-3" target="OKBlbXvvnZSu9rRJi_Yc-5" edge="1">
          <mxGeometry x="0.0772" y="20" width="160" relative="1" as="geometry">
            <mxPoint x="50.5" y="970" as="sourcePoint" />
            <mxPoint x="260" y="970" as="targetPoint" />
            <Array as="points">
              <mxPoint x="150" y="970" />
            </Array>
            <mxPoint x="1" as="offset" />
          </mxGeometry>
        </mxCell>
        <mxCell id="OKBlbXvvnZSu9rRJi_Yc-4" value=":workflowSvc" style="shape=umlLifeline;perimeter=lifelinePerimeter;whiteSpace=wrap;html=1;container=1;collapsible=0;recursiveResize=0;outlineConnect=0;" parent="1" vertex="1">
          <mxGeometry x="740" y="120" width="100" height="1440" as="geometry" />
        </mxCell>
        <mxCell id="OKBlbXvvnZSu9rRJi_Yc-28" value="Request to save Submission data" style="edgeStyle=elbowEdgeStyle;fontSize=12;html=1;endArrow=blockThin;endFill=1;rounded=0;" parent="OKBlbXvvnZSu9rRJi_Yc-4" edge="1">
          <mxGeometry x="0.5269" y="20" width="160" relative="1" as="geometry">
            <mxPoint x="-9.5" y="1010" as="sourcePoint" />
            <mxPoint x="50" y="1010" as="targetPoint" />
            <Array as="points">
              <mxPoint x="-170" y="890" />
            </Array>
            <mxPoint x="1" as="offset" />
          </mxGeometry>
        </mxCell>
        <mxCell id="OKBlbXvvnZSu9rRJi_Yc-30" value="&lt;font style=&quot;font-size: 12px;&quot;&gt;Success Response for save &lt;br&gt;submmison data&lt;/font&gt;" style="html=1;verticalAlign=bottom;endArrow=open;dashed=1;endSize=8;rounded=0;" parent="OKBlbXvvnZSu9rRJi_Yc-4" edge="1">
          <mxGeometry relative="1" as="geometry">
            <mxPoint x="50" y="1130" as="sourcePoint" />
            <mxPoint x="-170" y="1130" as="targetPoint" />
            <Array as="points" />
          </mxGeometry>
        </mxCell>
        <mxCell id="OKBlbXvvnZSu9rRJi_Yc-5" value=":WebBff" style="shape=umlLifeline;perimeter=lifelinePerimeter;whiteSpace=wrap;html=1;container=1;collapsible=0;recursiveResize=0;outlineConnect=0;" parent="1" vertex="1">
          <mxGeometry x="520" y="120" width="100" height="1450" as="geometry" />
        </mxCell>
        <mxCell id="OKBlbXvvnZSu9rRJi_Yc-35" value="Request to update Intake form with patient data and status" style="edgeStyle=elbowEdgeStyle;fontSize=12;html=1;endArrow=blockThin;endFill=1;rounded=0;" parent="OKBlbXvvnZSu9rRJi_Yc-5" target="OKBlbXvvnZSu9rRJi_Yc-12" edge="1">
          <mxGeometry width="160" relative="1" as="geometry">
            <mxPoint x="50" y="1280" as="sourcePoint" />
            <mxPoint x="210" y="1280" as="targetPoint" />
            <Array as="points">
              <mxPoint x="490" y="1290" />
            </Array>
          </mxGeometry>
        </mxCell>
        <mxCell id="OKBlbXvvnZSu9rRJi_Yc-7" value="Patient" style="shape=umlLifeline;participant=umlActor;perimeter=lifelinePerimeter;whiteSpace=wrap;html=1;container=1;collapsible=0;recursiveResize=0;verticalAlign=top;spacingTop=36;outlineConnect=0;size=50;" parent="1" vertex="1">
          <mxGeometry x="90" y="120" width="20" height="1440" as="geometry" />
        </mxCell>
        <mxCell id="OKBlbXvvnZSu9rRJi_Yc-9" value="Patient Initate Intake Form" style="edgeStyle=elbowEdgeStyle;fontSize=12;html=1;endArrow=blockThin;endFill=1;rounded=0;" parent="OKBlbXvvnZSu9rRJi_Yc-7" target="OKBlbXvvnZSu9rRJi_Yc-3" edge="1">
          <mxGeometry x="0.0501" y="20" width="160" relative="1" as="geometry">
            <mxPoint x="10" y="150" as="sourcePoint" />
            <mxPoint x="170" y="150" as="targetPoint" />
            <Array as="points">
              <mxPoint x="170" y="150" />
            </Array>
            <mxPoint as="offset" />
          </mxGeometry>
        </mxCell>
        <mxCell id="OKBlbXvvnZSu9rRJi_Yc-26" value="Patient Submits the intake form" style="edgeStyle=elbowEdgeStyle;fontSize=12;html=1;endArrow=blockThin;endFill=1;rounded=0;" parent="OKBlbXvvnZSu9rRJi_Yc-7" target="OKBlbXvvnZSu9rRJi_Yc-3" edge="1">
          <mxGeometry width="160" relative="1" as="geometry">
            <mxPoint x="10" y="920" as="sourcePoint" />
            <mxPoint x="170" y="920" as="targetPoint" />
            <Array as="points">
              <mxPoint x="150" y="920" />
            </Array>
          </mxGeometry>
        </mxCell>
        <mxCell id="OKBlbXvvnZSu9rRJi_Yc-10" value="&lt;font style=&quot;font-size: 12px;&quot;&gt;Response with user defined &lt;br&gt;ProcessKey&lt;/font&gt;" style="html=1;verticalAlign=bottom;endArrow=open;dashed=1;endSize=8;rounded=0;" parent="1" source="OKBlbXvvnZSu9rRJi_Yc-4" target="OKBlbXvvnZSu9rRJi_Yc-5" edge="1">
          <mxGeometry relative="1" as="geometry">
            <mxPoint x="710" y="480" as="sourcePoint" />
            <mxPoint x="630" y="480" as="targetPoint" />
            <Array as="points">
              <mxPoint x="690" y="510" />
            </Array>
          </mxGeometry>
        </mxCell>
        <mxCell id="OKBlbXvvnZSu9rRJi_Yc-11" value="Client Request&#39;s the initate Intake Form&amp;nbsp;" style="edgeStyle=elbowEdgeStyle;fontSize=12;html=1;endArrow=blockThin;endFill=1;rounded=0;" parent="1" target="OKBlbXvvnZSu9rRJi_Yc-5" edge="1">
          <mxGeometry x="0.0501" y="20" width="160" relative="1" as="geometry">
            <mxPoint x="309" y="320" as="sourcePoint" />
            <mxPoint x="518.5" y="320" as="targetPoint" />
            <Array as="points">
              <mxPoint x="550" y="320" />
            </Array>
            <mxPoint as="offset" />
          </mxGeometry>
        </mxCell>
        <mxCell id="OKBlbXvvnZSu9rRJi_Yc-12" value=":IntakeFormSvc" style="shape=umlLifeline;perimeter=lifelinePerimeter;whiteSpace=wrap;html=1;container=1;collapsible=0;recursiveResize=0;outlineConnect=0;" parent="1" vertex="1">
          <mxGeometry x="980" y="120" width="100" height="1440" as="geometry" />
        </mxCell>
        <mxCell id="OKBlbXvvnZSu9rRJi_Yc-13" value="Request to call initiate the process&amp;nbsp;" style="edgeStyle=elbowEdgeStyle;fontSize=12;html=1;endArrow=blockThin;endFill=1;rounded=0;" parent="1" target="OKBlbXvvnZSu9rRJi_Yc-4" edge="1">
          <mxGeometry x="0.0501" y="20" width="160" relative="1" as="geometry">
            <mxPoint x="570" y="380" as="sourcePoint" />
            <mxPoint x="727.5" y="380" as="targetPoint" />
            <Array as="points">
              <mxPoint x="708" y="380" />
            </Array>
            <mxPoint as="offset" />
          </mxGeometry>
        </mxCell>
        <mxCell id="OKBlbXvvnZSu9rRJi_Yc-14" value="Start the Process Instance&amp;nbsp;" style="edgeStyle=elbowEdgeStyle;fontSize=12;html=1;endArrow=blockThin;endFill=1;rounded=0;" parent="1" target="OKBlbXvvnZSu9rRJi_Yc-4" edge="1">
          <mxGeometry x="0.0467" y="20" width="160" relative="1" as="geometry">
            <mxPoint x="790" y="400" as="sourcePoint" />
            <mxPoint x="850" y="470" as="targetPoint" />
            <Array as="points">
              <mxPoint x="850" y="440" />
            </Array>
            <mxPoint as="offset" />
          </mxGeometry>
        </mxCell>
        <mxCell id="OKBlbXvvnZSu9rRJi_Yc-15" value="Request to save the Intake form details with status and&amp;nbsp;&lt;br&gt;user defined process key" style="edgeStyle=elbowEdgeStyle;fontSize=12;html=1;endArrow=blockThin;endFill=1;rounded=0;" parent="1" target="OKBlbXvvnZSu9rRJi_Yc-12" edge="1">
          <mxGeometry x="0.0501" y="20" width="160" relative="1" as="geometry">
            <mxPoint x="570" y="600" as="sourcePoint" />
            <mxPoint x="789.5" y="600" as="targetPoint" />
            <Array as="points">
              <mxPoint x="708" y="600" />
            </Array>
            <mxPoint as="offset" />
          </mxGeometry>
        </mxCell>
        <mxCell id="OKBlbXvvnZSu9rRJi_Yc-16" value="&lt;font style=&quot;font-size: 12px;&quot;&gt;Response with&amp;nbsp; intake form details&lt;br&gt;&lt;/font&gt;" style="html=1;verticalAlign=bottom;endArrow=open;dashed=1;endSize=8;rounded=0;" parent="1" source="OKBlbXvvnZSu9rRJi_Yc-12" target="OKBlbXvvnZSu9rRJi_Yc-5" edge="1">
          <mxGeometry relative="1" as="geometry">
            <mxPoint x="1020" y="660" as="sourcePoint" />
            <mxPoint x="800" y="660" as="targetPoint" />
            <Array as="points">
              <mxPoint x="920.5" y="660" />
            </Array>
          </mxGeometry>
        </mxCell>
        <mxCell id="OKBlbXvvnZSu9rRJi_Yc-19" value="Client Request&#39;s the Retrieve intake form data" style="edgeStyle=elbowEdgeStyle;fontSize=12;html=1;endArrow=blockThin;endFill=1;rounded=0;" parent="1" edge="1">
          <mxGeometry x="0.0501" y="20" width="160" relative="1" as="geometry">
            <mxPoint x="310" y="740" as="sourcePoint" />
            <mxPoint x="570.5" y="740" as="targetPoint" />
            <Array as="points">
              <mxPoint x="551" y="740" />
            </Array>
            <mxPoint as="offset" />
          </mxGeometry>
        </mxCell>
        <mxCell id="OKBlbXvvnZSu9rRJi_Yc-20" value="Request Form schema for&lt;br&gt;&amp;nbsp;intake form" style="edgeStyle=elbowEdgeStyle;fontSize=12;html=1;endArrow=blockThin;endFill=1;rounded=0;" parent="1" target="OKBlbXvvnZSu9rRJi_Yc-4" edge="1">
          <mxGeometry x="0.1845" y="20" width="160" relative="1" as="geometry">
            <mxPoint x="570" y="790" as="sourcePoint" />
            <mxPoint x="750.5" y="790" as="targetPoint" />
            <Array as="points">
              <mxPoint x="731" y="790" />
            </Array>
            <mxPoint as="offset" />
          </mxGeometry>
        </mxCell>
        <mxCell id="OKBlbXvvnZSu9rRJi_Yc-21" value="&lt;font style=&quot;font-size: 12px;&quot;&gt;Response with&amp;nbsp; Formschema &lt;br&gt;for intake form&lt;br&gt;&lt;/font&gt;" style="html=1;verticalAlign=bottom;endArrow=open;dashed=1;endSize=8;rounded=0;" parent="1" edge="1">
          <mxGeometry relative="1" as="geometry">
            <mxPoint x="790" y="860" as="sourcePoint" />
            <mxPoint x="570" y="860" as="targetPoint" />
            <Array as="points" />
          </mxGeometry>
        </mxCell>
        <mxCell id="OKBlbXvvnZSu9rRJi_Yc-24" value="&lt;font style=&quot;font-size: 12px;&quot;&gt;Response with&amp;nbsp; Formschema &lt;br&gt;for intake form for Render Form data&lt;br&gt;&lt;/font&gt;" style="html=1;verticalAlign=bottom;endArrow=open;dashed=1;endSize=8;rounded=0;" parent="1" edge="1">
          <mxGeometry relative="1" as="geometry">
            <mxPoint x="569.5" y="908" as="sourcePoint" />
            <mxPoint x="309.5" y="908" as="targetPoint" />
            <Array as="points">
              <mxPoint x="340" y="908" />
            </Array>
          </mxGeometry>
        </mxCell>
        <mxCell id="OKBlbXvvnZSu9rRJi_Yc-25" value="&lt;font style=&quot;font-size: 12px;&quot;&gt;Patient Views the intake form&lt;br&gt;&lt;/font&gt;" style="html=1;verticalAlign=bottom;endArrow=open;dashed=1;endSize=8;rounded=0;" parent="1" edge="1">
          <mxGeometry x="0.0476" y="-10" relative="1" as="geometry">
            <mxPoint x="310" y="970" as="sourcePoint" />
            <mxPoint x="100" y="970" as="targetPoint" />
            <Array as="points">
              <mxPoint x="130.5" y="970" />
            </Array>
            <mxPoint as="offset" />
          </mxGeometry>
        </mxCell>
        <mxCell id="OKBlbXvvnZSu9rRJi_Yc-29" value="parse and save the data in process&amp;nbsp;&lt;br&gt;domain entity" style="edgeStyle=elbowEdgeStyle;fontSize=12;html=1;endArrow=blockThin;endFill=1;rounded=0;" parent="1" edge="1">
          <mxGeometry x="0.0467" y="20" width="160" relative="1" as="geometry">
            <mxPoint x="790.5" y="1169" as="sourcePoint" />
            <mxPoint x="790" y="1209" as="targetPoint" />
            <Array as="points">
              <mxPoint x="850.5" y="1209" />
            </Array>
            <mxPoint as="offset" />
          </mxGeometry>
        </mxCell>
        <mxCell id="OKBlbXvvnZSu9rRJi_Yc-31" value="Retrieve submiission data &amp;amp;&amp;nbsp;&lt;br&gt;parse the Patient data" style="edgeStyle=elbowEdgeStyle;fontSize=12;html=1;endArrow=blockThin;endFill=1;rounded=0;" parent="1" edge="1">
          <mxGeometry x="0.0467" y="20" width="160" relative="1" as="geometry">
            <mxPoint x="570.5" y="1290" as="sourcePoint" />
            <mxPoint x="570" y="1330" as="targetPoint" />
            <Array as="points">
              <mxPoint x="630.5" y="1330" />
            </Array>
            <mxPoint as="offset" />
          </mxGeometry>
        </mxCell>
        <mxCell id="OKBlbXvvnZSu9rRJi_Yc-36" value="update the patient data in db" style="edgeStyle=elbowEdgeStyle;fontSize=12;html=1;endArrow=blockThin;endFill=1;rounded=0;" parent="1" edge="1">
          <mxGeometry x="0.0467" y="20" width="160" relative="1" as="geometry">
            <mxPoint x="1030.5" y="1420" as="sourcePoint" />
            <mxPoint x="1030" y="1460" as="targetPoint" />
            <Array as="points">
              <mxPoint x="1090.5" y="1460" />
            </Array>
            <mxPoint as="offset" />
          </mxGeometry>
        </mxCell>
        <mxCell id="OKBlbXvvnZSu9rRJi_Yc-37" value="&lt;font style=&quot;font-size: 12px;&quot;&gt;Success Response for update Intake form&lt;br&gt;&lt;/font&gt;" style="html=1;verticalAlign=bottom;endArrow=open;dashed=1;endSize=8;rounded=0;" parent="1" target="OKBlbXvvnZSu9rRJi_Yc-5" edge="1">
          <mxGeometry relative="1" as="geometry">
            <mxPoint x="1030" y="1489.9999999999998" as="sourcePoint" />
            <mxPoint x="810" y="1489.9999999999998" as="targetPoint" />
            <Array as="points" />
          </mxGeometry>
        </mxCell>
        <mxCell id="OKBlbXvvnZSu9rRJi_Yc-38" value="&lt;font style=&quot;font-size: 12px;&quot;&gt;Success Response&amp;nbsp;&lt;br&gt;&lt;/font&gt;" style="html=1;verticalAlign=bottom;endArrow=open;dashed=1;endSize=8;rounded=0;" parent="1" edge="1">
          <mxGeometry relative="1" as="geometry">
            <mxPoint x="570" y="1520" as="sourcePoint" />
            <mxPoint x="310" y="1520" as="targetPoint" />
            <Array as="points" />
          </mxGeometry>
        </mxCell>
        <mxCell id="OKBlbXvvnZSu9rRJi_Yc-39" value="&lt;font style=&quot;font-size: 12px;&quot;&gt;Success Response&amp;nbsp;&lt;br&gt;&lt;/font&gt;" style="html=1;verticalAlign=bottom;endArrow=open;dashed=1;endSize=8;rounded=0;exitX=0.5;exitY=0.993;exitDx=0;exitDy=0;exitPerimeter=0;" parent="1" source="OKBlbXvvnZSu9rRJi_Yc-3" target="OKBlbXvvnZSu9rRJi_Yc-7" edge="1">
          <mxGeometry relative="1" as="geometry">
            <mxPoint x="330" y="1550" as="sourcePoint" />
            <mxPoint x="70" y="1550" as="targetPoint" />
            <Array as="points" />
          </mxGeometry>
        </mxCell>
        <mxCell id="OKBlbXvvnZSu9rRJi_Yc-40" value="&lt;h1&gt;&lt;font style=&quot;font-size: 19px;&quot;&gt;Submit Intake Form&lt;/font&gt;&lt;/h1&gt;" style="text;html=1;align=center;verticalAlign=middle;resizable=0;points=[];autosize=1;strokeColor=none;fillColor=none;fontSize=12;fontStyle=1;strokeWidth=1;" parent="1" vertex="1">
          <mxGeometry x="30" y="5" width="200" height="70" as="geometry" />
        </mxCell>
      </root>
    </mxGraphModel>
  </diagram>
</mxfile>
